<svg xmlns="http://www.w3.org/2000/svg" version="1.1" xmlns:xlink="http://www.w3.org/1999/xlink" xmlns:svgjs="http://svgjs.dev/svgjs" width="1000" height="1000" viewBox="0 0 1000 1000"><rect width="1000" height="1000" fill="#010c80"></rect><g transform="matrix(0.7,0,0,0.7,149.84897959183667,150.19913061224486)"><svg viewBox="0 0 343 343" data-background-color="#010c80" preserveAspectRatio="xMidYMid meet" height="999" width="1000" xmlns="http://www.w3.org/2000/svg" xmlns:xlink="http://www.w3.org/1999/xlink"><g id="tight-bounds" transform="matrix(1,0,0,1,0.0740000000000407,0.07400000000001228)"><svg viewBox="0 0 342.85155851775386 342.85155851775386" height="342.85155851775386" width="342.85155851775386"><g><svg></svg></g><g><svg viewBox="0 0 342.85155851775386 342.85155851775386" height="342.85155851775386" width="342.85155851775386"><g><path d="M0 171.426c0-94.676 76.75-171.426 171.426-171.426 94.676 0 171.426 76.75 171.426 171.426 0 94.676-76.75 171.426-171.426 171.426-94.676 0-171.426-76.75-171.426-171.426zM171.426 338.799c92.438 0 167.373-74.936 167.373-167.373 0-92.438-74.936-167.373-167.373-167.374-92.438 0-167.373 74.936-167.374 167.374 0 92.438 74.936 167.373 167.374 167.373z" data-fill-palette-color="tertiary" fill="#f8fafc" stroke="transparent"></path><ellipse rx="164.56874808852186" ry="164.56874808852186" cx="171.42577925887693" cy="171.42577925887693" fill="#f8fafc" stroke="transparent" stroke-width="0" fill-opacity="1" data-fill-palette-color="tertiary"></ellipse></g><g transform="matrix(1,0,0,1,64.84655864529837,122.83720607870805)"><svg viewBox="0 0 213.1584412271571 97.17714636033774" height="97.17714636033774" width="213.1584412271571"><g><svg viewBox="0 0 213.1584412271571 97.17714636033774" height="97.17714636033774" width="213.1584412271571"><g><svg viewBox="0 0 362.95326404479266 165.46735029112003" height="97.17714636033774" width="213.1584412271571"><g><svg viewBox="0 0 213.1584412271571 165.46735029112003" height="165.46735029112003" width="213.1584412271571"><g id="textblocktransform"><svg viewBox="0 0 213.1584412271571 165.46735029112003" height="165.46735029112003" width="213.1584412271571" id="textblock"><g><svg viewBox="0 0 213.1584412271571 165.46735029112003" height="165.46735029112003" width="213.1584412271571"><g transform="matrix(1,0,0,1,0,0)"><svg width="213.1584412271571" viewBox="1.1000000000000036 -36.3 105.39999999999999 76.19999999999999" height="165.46735029112003" data-palette-color="#010c80"><svg></svg><svg></svg><g class="wordmark-text-0" data-fill-palette-color="quaternary" id="text-0"><path transform="translate(0.6,0)" d="M38.45 0h-11.7l-1.45-4.85h-12.05l-1.45 4.85h-11.3l12.55-34.4h12.85zM19.2-24.8l-3.65 12.25h7.45l-3.6-12.25zM54.45-27c3.533 0 6.527 0.69 8.98 2.07 2.447 1.387 3.67 3.53 3.67 6.43v0h-9.25c0-0.967-0.433-1.65-1.3-2.05v0c-0.6-0.333-1.35-0.5-2.25-0.5v0c-2.4 0-3.6 0.567-3.6 1.7v0c0 0.633 0.417 1.083 1.25 1.35 0.833 0.267 2.2 0.55 4.1 0.85v0c2.333 0.333 4.283 0.723 5.85 1.17 1.567 0.453 2.933 1.253 4.1 2.4 1.167 1.153 1.75 2.763 1.75 4.83v0c0 3.367-1.257 5.767-3.77 7.2-2.52 1.433-5.813 2.15-9.88 2.15v0c-2.333 0-4.533-0.327-6.6-0.98-2.067-0.647-3.75-1.653-5.05-3.02-1.3-1.367-1.95-3.1-1.95-5.2v0h9.25v0.2c0.033 1.133 0.51 1.923 1.43 2.37 0.913 0.453 1.887 0.68 2.92 0.68v0c2.767 0 4.15-0.65 4.15-1.95v0c0-0.667-0.433-1.15-1.3-1.45-0.867-0.3-2.283-0.617-4.25-0.95v0c-2.367-0.4-4.307-0.833-5.82-1.3-1.52-0.467-2.847-1.26-3.98-2.38-1.133-1.113-1.7-2.67-1.7-4.67v0c0-3.233 1.227-5.533 3.68-6.9 2.447-1.367 5.637-2.05 9.57-2.05zM82.4-16.3l8.45-10.1h11.6l-9.75 10.65 10 15.75h-11.3l-5.55-9.05-3.45 3.35v5.7h-9.95v-36.3h9.95z" fill="#010c80" fill-rule="nonzero" stroke="none" stroke-width="1" stroke-linecap="butt" stroke-linejoin="miter" stroke-miterlimit="10" stroke-dasharray="" stroke-dashoffset="0" font-family="none" font-weight="none" font-size="none" text-anchor="none" style="mix-blend-mode: normal" data-fill-palette-color="quaternary" opacity="1"></path><path transform="translate(0,39.9)" d="M23-34.4c2.133 0 4.033 0.49 5.7 1.47 1.667 0.987 2.967 2.337 3.9 4.05 0.933 1.72 1.4 3.647 1.4 5.78v0 0.65c0 2.133-0.467 4.067-1.4 5.8-0.933 1.733-2.233 3.09-3.9 4.07-1.667 0.987-3.567 1.48-5.7 1.48v0h-8.25v11.1h-11.05v-34.4zM14.75-26.25v7.1h4.55c1.167 0 2.043-0.3 2.63-0.9 0.58-0.6 0.87-1.417 0.87-2.45v0-0.4c0-1.067-0.29-1.893-0.87-2.48-0.587-0.58-1.463-0.87-2.63-0.87v0zM54.7-34.4c12.033 0 18.05 5.733 18.05 17.2v0c0 11.467-6.017 17.2-18.05 17.2v0h-14.9v-34.4zM50.85-26.15v17.9h3.65c4.633 0 6.95-2.483 6.95-7.45v0-3c0-4.967-2.317-7.45-6.95-7.45v0zM78.7 0v-34.4h27.8v8.25h-16.75v5.9h14.4v7.9h-14.4v12.35z" fill="#010c80" fill-rule="nonzero" stroke="none" stroke-width="1" stroke-linecap="butt" stroke-linejoin="miter" stroke-miterlimit="10" stroke-dasharray="" stroke-dashoffset="0" font-family="none" font-weight="none" font-size="none" text-anchor="none" style="mix-blend-mode: normal" data-fill-palette-color="quaternary" opacity="1"></path></g></svg></g></svg></g></svg></g></svg></g><g transform="matrix(1,0,0,1,231.22134736640956,16.867716806368463)"><svg viewBox="0 0 131.7319166783831 131.7319166783831" height="131.7319166783831" width="131.7319166783831"><g><svg xmlns="http://www.w3.org/2000/svg" xmlns:xlink="http://www.w3.org/1999/xlink" version="1.1" x="0" y="0" viewBox="9 9 82 82" style="enable-background:new 0 0 100 100;" xml:space="preserve" height="131.7319166783831" width="131.7319166783831" class="icon-icon-0" data-fill-palette-color="quaternary" id="icon-0"><path d="M25.8 81h23c-1 5.7-5.9 10-11.8 10H9V30c0-2.2 1.8-4 4-4s4 1.8 4 4v21.1c0 0.1 0 0.2 0 0.2 0 0 0 0.1 0 0.2 0 0.1 0 0.1 0.1 0.2 0 0.1 0 0.1 0.1 0.2 0 0.1 0.1 0.1 0.1 0.2 0 0.1 0.1 0.1 0.1 0.2 0 0 0.1 0.1 0.1 0.1 0 0.1 0.1 0.1 0.1 0.1 0.1 0 0.1 0.1 0.2 0.1 0 0 0.1 0.1 0.1 0.1 0 0 0.1 0.1 0.2 0.1 0.1 0 0.1 0.1 0.2 0.1 0 0 0 0 0 0 0.5 0.2 1 0.4 1.5 0.7 5 2.5 8.2 7.7 8.2 13.4 0 0.5 0 1.1-0.1 1.8-0.2 1.4-0.5 2.8-1.1 4.2-0.6 1.3-1.3 2.5-2.2 3.7-0.3 0.4-0.6 0.7-0.9 1-1.5 1.5-3.3 2.7-5.3 3.4-1 0.4-1.5 1.5-1.2 2.6 0.3 0.8 1.1 1.3 1.9 1.3 0.2 0 0.5 0 0.7-0.1C22 83.9 24 82.6 25.8 81zM61 13c0-2.2-1.8-4-4-4H25c-2.2 0-4 1.8-4 4v2h40V13zM50.4 62.4c-0.6 0-1.1-0.3-1.5-0.7-0.5-0.6-0.6-1.4-0.3-2.1l4.3-9.4C51.6 47.5 51 44.8 51 42c0-7 4-13.2 10-16.8V19H21v30.8c6.6 3.1 11 9.8 11 17.2h29v-7.5l-10.1 2.8C50.7 62.3 50.5 62.4 50.4 62.4zM29.1 77H57c2.2 0 4-1.8 4-4v-2H31.5C31.1 73.1 30.3 75.2 29.1 77zM91 42c0 8.8-8.1 16-18 16-3.5 0-6.9-0.9-9.8-2.6-0.3-0.2-0.7-0.3-1-0.3-0.2 0-0.4 0-0.5 0.1L54 57.3l3-6.4c0.3-0.6 0.2-1.3-0.1-1.8C55.6 46.9 55 44.5 55 42c0-8.8 8.1-16 18-16S91 33.2 91 42zM65 42c0-0.5-0.2-1-0.6-1.4-0.1-0.1-0.2-0.2-0.3-0.2-0.1-0.1-0.2-0.1-0.3-0.2-0.1 0-0.2-0.1-0.4-0.1-0.3 0-0.5 0-0.8 0-0.1 0-0.2 0.1-0.4 0.1-0.1 0.1-0.2 0.1-0.3 0.2-0.1 0.1-0.2 0.2-0.3 0.2-0.1 0.1-0.2 0.2-0.2 0.3-0.1 0.1-0.1 0.2-0.2 0.3-0.1 0.1-0.1 0.2-0.1 0.4 0 0.1 0 0.3 0 0.4s0 0.3 0 0.4c0 0.1 0.1 0.2 0.1 0.4 0 0.1 0.1 0.2 0.2 0.3 0.1 0.1 0.1 0.2 0.2 0.3 0.1 0.1 0.2 0.2 0.3 0.2s0.2 0.1 0.3 0.2c0.1 0 0.2 0.1 0.4 0.1 0.1 0 0.3 0 0.4 0 0.5 0 1-0.2 1.4-0.6 0.1-0.1 0.2-0.2 0.2-0.3 0.1-0.1 0.1-0.2 0.2-0.3 0.1-0.1 0.1-0.2 0.1-0.4C65 42.3 65 42.1 65 42zM75 42c0-0.5-0.2-1-0.6-1.4-0.5-0.5-1.1-0.7-1.8-0.5-0.1 0-0.3 0.1-0.4 0.1-0.1 0.1-0.2 0.1-0.3 0.2s-0.2 0.2-0.3 0.2C71.2 41 71 41.5 71 42c0 0.5 0.2 1 0.6 1.4 0.1 0.1 0.2 0.2 0.3 0.2s0.2 0.1 0.3 0.2 0.2 0.1 0.4 0.1c0.1 0 0.3 0 0.4 0 0.5 0 1-0.2 1.4-0.6C74.8 43 75 42.5 75 42zM85 42c0-0.1 0-0.3 0-0.4 0-0.1-0.1-0.2-0.1-0.4 0-0.1-0.1-0.2-0.2-0.3-0.1-0.1-0.1-0.2-0.2-0.3-0.1-0.1-0.2-0.2-0.3-0.2s-0.2-0.1-0.3-0.2c-0.1 0-0.2-0.1-0.4-0.1-0.3 0-0.5 0-0.8 0-0.1 0-0.3 0.1-0.4 0.1-0.1 0.1-0.2 0.1-0.3 0.2s-0.2 0.2-0.3 0.2c-0.1 0.1-0.2 0.2-0.2 0.3-0.1 0.1-0.1 0.2-0.2 0.3-0.1 0.1-0.1 0.2-0.1 0.4 0 0.1 0 0.3 0 0.4 0 0.5 0.2 1 0.6 1.4 0.1 0.1 0.2 0.2 0.3 0.2s0.2 0.1 0.3 0.2 0.2 0.1 0.4 0.1c0.1 0 0.3 0 0.4 0 0.5 0 1-0.2 1.4-0.6 0.1-0.1 0.2-0.2 0.2-0.3 0.1-0.1 0.1-0.2 0.2-0.3 0.1-0.1 0.1-0.2 0.1-0.4C85 42.3 85 42.1 85 42z" fill="#010c80" data-fill-palette-color="quaternary"></path></svg></g></svg></g></svg></g></svg></g></svg></g></svg></g><defs></defs></svg><rect width="342.85155851775386" height="342.85155851775386" fill="none" stroke="none" visibility="hidden"></rect></g></svg></g></svg>