<svg xmlns="http://www.w3.org/2000/svg" version="1.1" xmlns:xlink="http://www.w3.org/1999/xlink" xmlns:svgjs="http://svgjs.dev/svgjs" width="1000" height="530" viewBox="0 0 1000 530"><g transform="matrix(1,0,0,1,-0.6060606060606801,0.20243465641181047)"><svg viewBox="0 0 396 210" data-background-color="#001f3f" preserveAspectRatio="xMidYMid meet" height="530" width="1000" xmlns="http://www.w3.org/2000/svg" xmlns:xlink="http://www.w3.org/1999/xlink"><g id="tight-bounds" transform="matrix(1,0,0,1,0.24000000000003752,-0.08020995820089638)"><svg viewBox="0 0 395.5199999999999 210.1604199164018" height="210.1604199164018" width="395.5199999999999"><g><svg viewBox="0 0 395.5199999999999 210.1604199164018" height="210.1604199164018" width="395.5199999999999"><g><svg viewBox="0 0 572.3472741413289 304.1179800554956" height="210.1604199164018" width="395.5199999999999"><g><svg viewBox="0 0 290.8891926005858 304.1179800554956" height="304.1179800554956" width="290.8891926005858"><g id="textblocktransform"><svg viewBox="0 0 290.8891926005858 304.1179800554956" height="304.1179800554956" width="290.8891926005858" id="textblock"><g><rect width="290.8891926005858" height="247.2" fill="none" stroke-width="9.018103199999999" stroke="#f8fafc" data-fill-palette-color="none" data-stroke-palette-color="tertiary"></rect><rect width="290.8891926005858" height="56.9179800554956" y="247.2" fill="#f8fafc" data-fill-palette-color="tertiary"></rect></g><g><svg viewBox="0 0 290.8891926005858 247.2" height="247.2" width="290.8891926005858"><g transform="matrix(1,0,0,1,23.607599999999998,23.607599999999998)"><svg width="243.6739926005858" viewBox="2.860000000000001 -35.01 92.61999999999999 73.02" height="199.9848" data-palette-color="#f8fafc"><svg></svg><svg></svg><g class="wordmark-text-0" data-fill-palette-color="primary" id="text-0"><path d="M9.84-13.99h14.01v-7.01c0-0.96-0.183-1.867-0.55-2.72-0.367-0.853-0.867-1.597-1.5-2.23-0.633-0.633-1.377-1.133-2.23-1.5-0.853-0.367-1.76-0.55-2.72-0.55v0c-0.96 0-1.87 0.183-2.73 0.55-0.853 0.367-1.597 0.867-2.23 1.5-0.633 0.633-1.133 1.377-1.5 2.23-0.367 0.853-0.55 1.76-0.55 2.72v0zM30.86-21v21h-7.01v-7.01h-14.01v7.01h-6.98v-21c0-1.933 0.367-3.75 1.1-5.45 0.727-1.7 1.723-3.187 2.99-4.46 1.26-1.267 2.74-2.267 4.44-3 1.7-0.733 3.52-1.1 5.46-1.1v0c1.933 0 3.75 0.367 5.45 1.1 1.7 0.733 3.187 1.733 4.46 3 1.267 1.273 2.267 2.76 3 4.46 0.733 1.7 1.1 3.517 1.1 5.45zM34.89-24.51v0c0-1.447 0.277-2.807 0.83-4.08 0.553-1.267 1.307-2.377 2.26-3.33 0.947-0.953 2.057-1.707 3.33-2.26 1.267-0.553 2.627-0.83 4.08-0.83v0h16.06v7.01h-16.06c-0.493 0-0.95 0.09-1.37 0.27-0.427 0.173-0.797 0.42-1.11 0.74-0.32 0.32-0.57 0.69-0.75 1.11-0.18 0.427-0.27 0.883-0.27 1.37v0c0 0.487 0.09 0.947 0.27 1.38 0.18 0.427 0.43 0.8 0.75 1.12 0.313 0.32 0.683 0.57 1.11 0.75 0.42 0.173 0.877 0.26 1.37 0.26v0h7c1.453 0 2.817 0.273 4.09 0.82 1.28 0.547 2.397 1.297 3.35 2.25 0.947 0.953 1.693 2.067 2.24 3.34 0.547 1.28 0.82 2.643 0.82 4.09v0c0 1.447-0.273 2.807-0.82 4.08-0.547 1.267-1.293 2.377-2.24 3.33-0.953 0.953-2.07 1.707-3.35 2.26-1.273 0.553-2.637 0.83-4.09 0.83v0h-15.55v-7.01h15.55c0.493 0 0.95-0.09 1.37-0.27 0.42-0.173 0.79-0.42 1.11-0.74 0.32-0.32 0.57-0.69 0.75-1.11 0.173-0.427 0.26-0.883 0.26-1.37v0c0-0.487-0.087-0.943-0.26-1.37-0.18-0.42-0.43-0.79-0.75-1.11-0.32-0.313-0.69-0.56-1.11-0.74-0.42-0.18-0.877-0.27-1.37-0.27v0h-7c-1.453 0-2.813-0.277-4.08-0.83-1.273-0.553-2.383-1.307-3.33-2.26-0.953-0.953-1.707-2.067-2.26-3.34-0.553-1.28-0.83-2.643-0.83-4.09zM74.49-7.01v7.01h-7.01v-35.01h7.01v17.51l13.03-17.51h7.96l-11.06 14.77 11.06 20.24h-7.96l-7.69-14.16z" fill="#f8fafc" fill-rule="nonzero" stroke="none" stroke-width="1" stroke-linecap="butt" stroke-linejoin="miter" stroke-miterlimit="10" stroke-dasharray="" stroke-dashoffset="0" font-family="none" font-weight="none" font-size="none" text-anchor="none" style="mix-blend-mode: normal" data-fill-palette-color="primary" opacity="1"></path><path transform="translate(0,38.01)" d="M17.26-28h-7.01v14.01h7.01c0.96 0 1.863-0.183 2.71-0.55 0.847-0.367 1.587-0.867 2.22-1.5 0.633-0.633 1.133-1.377 1.5-2.23 0.367-0.86 0.55-1.77 0.55-2.73v0c0-0.96-0.183-1.867-0.55-2.72-0.367-0.853-0.867-1.597-1.5-2.23-0.633-0.633-1.373-1.133-2.22-1.5-0.847-0.367-1.75-0.55-2.71-0.55zM10.25-7.01v7.01h-7v-35.01h14.01c1.287 0 2.523 0.167 3.71 0.5 1.187 0.333 2.297 0.807 3.33 1.42 1.033 0.607 1.98 1.337 2.84 2.19 0.853 0.86 1.583 1.81 2.19 2.85 0.613 1.04 1.087 2.153 1.42 3.34 0.333 1.193 0.5 2.43 0.5 3.71v0c0 1.92-0.367 3.733-1.1 5.44-0.733 1.7-1.733 3.183-3 4.45-1.273 1.273-2.76 2.273-4.46 3-1.7 0.733-3.51 1.1-5.43 1.1v0zM63.4-17.5v0c0 1.607-0.207 3.157-0.62 4.65-0.413 1.487-1.003 2.877-1.77 4.17-0.767 1.293-1.677 2.473-2.73 3.54-1.06 1.067-2.24 1.983-3.54 2.75-1.307 0.76-2.703 1.35-4.19 1.77-1.487 0.413-3.037 0.62-4.65 0.62v0h-10.55v-35.01h10.55c1.613 0 3.163 0.207 4.65 0.62 1.487 0.42 2.883 1.01 4.19 1.77 1.3 0.767 2.48 1.683 3.54 2.75 1.053 1.067 1.963 2.247 2.73 3.54 0.767 1.293 1.357 2.683 1.77 4.17 0.413 1.493 0.62 3.047 0.62 4.66zM56.4-17.5v0c0-1.453-0.273-2.813-0.82-4.08-0.547-1.273-1.297-2.383-2.25-3.33-0.953-0.953-2.067-1.707-3.34-2.26-1.28-0.553-2.643-0.83-4.09-0.83v0h-3.49v20.99h3.49c1.447 0 2.81-0.27 4.09-0.81 1.273-0.547 2.387-1.297 3.34-2.25 0.953-0.953 1.703-2.07 2.25-3.35 0.547-1.273 0.82-2.633 0.82-4.08zM75.05-13.99v13.99h-7.01v-35.01h24.51v7.01h-17.5v7h10.5v7.01z" fill="#f8fafc" fill-rule="nonzero" stroke="none" stroke-width="1" stroke-linecap="butt" stroke-linejoin="miter" stroke-miterlimit="10" stroke-dasharray="" stroke-dashoffset="0" font-family="none" font-weight="none" font-size="none" text-anchor="none" style="mix-blend-mode: normal" data-fill-palette-color="primary" opacity="1"></path></g></svg></g></svg></g></svg></g></svg></g><g transform="matrix(1,0,0,1,302.6929926005858,17.231849257376297)"><svg viewBox="0 0 269.654281540743 269.654281540743" height="269.654281540743" width="269.654281540743"><g><svg xmlns="http://www.w3.org/2000/svg" xmlns:xlink="http://www.w3.org/1999/xlink" version="1.1" x="0" y="0" viewBox="9 9 82 82" style="enable-background:new 0 0 100 100;" xml:space="preserve" height="269.654281540743" width="269.654281540743" class="icon-icon-0" data-fill-palette-color="accent" id="icon-0"><path d="M25.8 81h23c-1 5.7-5.9 10-11.8 10H9V30c0-2.2 1.8-4 4-4s4 1.8 4 4v21.1c0 0.1 0 0.2 0 0.2 0 0 0 0.1 0 0.2 0 0.1 0 0.1 0.1 0.2 0 0.1 0 0.1 0.1 0.2 0 0.1 0.1 0.1 0.1 0.2 0 0.1 0.1 0.1 0.1 0.2 0 0 0.1 0.1 0.1 0.1 0 0.1 0.1 0.1 0.1 0.1 0.1 0 0.1 0.1 0.2 0.1 0 0 0.1 0.1 0.1 0.1 0 0 0.1 0.1 0.2 0.1 0.1 0 0.1 0.1 0.2 0.1 0 0 0 0 0 0 0.5 0.2 1 0.4 1.5 0.7 5 2.5 8.2 7.7 8.2 13.4 0 0.5 0 1.1-0.1 1.8-0.2 1.4-0.5 2.8-1.1 4.2-0.6 1.3-1.3 2.5-2.2 3.7-0.3 0.4-0.6 0.7-0.9 1-1.5 1.5-3.3 2.7-5.3 3.4-1 0.4-1.5 1.5-1.2 2.6 0.3 0.8 1.1 1.3 1.9 1.3 0.2 0 0.5 0 0.7-0.1C22 83.9 24 82.6 25.8 81zM61 13c0-2.2-1.8-4-4-4H25c-2.2 0-4 1.8-4 4v2h40V13zM50.4 62.4c-0.6 0-1.1-0.3-1.5-0.7-0.5-0.6-0.6-1.4-0.3-2.1l4.3-9.4C51.6 47.5 51 44.8 51 42c0-7 4-13.2 10-16.8V19H21v30.8c6.6 3.1 11 9.8 11 17.2h29v-7.5l-10.1 2.8C50.7 62.3 50.5 62.4 50.4 62.4zM29.1 77H57c2.2 0 4-1.8 4-4v-2H31.5C31.1 73.1 30.3 75.2 29.1 77zM91 42c0 8.8-8.1 16-18 16-3.5 0-6.9-0.9-9.8-2.6-0.3-0.2-0.7-0.3-1-0.3-0.2 0-0.4 0-0.5 0.1L54 57.3l3-6.4c0.3-0.6 0.2-1.3-0.1-1.8C55.6 46.9 55 44.5 55 42c0-8.8 8.1-16 18-16S91 33.2 91 42zM65 42c0-0.5-0.2-1-0.6-1.4-0.1-0.1-0.2-0.2-0.3-0.2-0.1-0.1-0.2-0.1-0.3-0.2-0.1 0-0.2-0.1-0.4-0.1-0.3 0-0.5 0-0.8 0-0.1 0-0.2 0.1-0.4 0.1-0.1 0.1-0.2 0.1-0.3 0.2-0.1 0.1-0.2 0.2-0.3 0.2-0.1 0.1-0.2 0.2-0.2 0.3-0.1 0.1-0.1 0.2-0.2 0.3-0.1 0.1-0.1 0.2-0.1 0.4 0 0.1 0 0.3 0 0.4s0 0.3 0 0.4c0 0.1 0.1 0.2 0.1 0.4 0 0.1 0.1 0.2 0.2 0.3 0.1 0.1 0.1 0.2 0.2 0.3 0.1 0.1 0.2 0.2 0.3 0.2s0.2 0.1 0.3 0.2c0.1 0 0.2 0.1 0.4 0.1 0.1 0 0.3 0 0.4 0 0.5 0 1-0.2 1.4-0.6 0.1-0.1 0.2-0.2 0.2-0.3 0.1-0.1 0.1-0.2 0.2-0.3 0.1-0.1 0.1-0.2 0.1-0.4C65 42.3 65 42.1 65 42zM75 42c0-0.5-0.2-1-0.6-1.4-0.5-0.5-1.1-0.7-1.8-0.5-0.1 0-0.3 0.1-0.4 0.1-0.1 0.1-0.2 0.1-0.3 0.2s-0.2 0.2-0.3 0.2C71.2 41 71 41.5 71 42c0 0.5 0.2 1 0.6 1.4 0.1 0.1 0.2 0.2 0.3 0.2s0.2 0.1 0.3 0.2 0.2 0.1 0.4 0.1c0.1 0 0.3 0 0.4 0 0.5 0 1-0.2 1.4-0.6C74.8 43 75 42.5 75 42zM85 42c0-0.1 0-0.3 0-0.4 0-0.1-0.1-0.2-0.1-0.4 0-0.1-0.1-0.2-0.2-0.3-0.1-0.1-0.1-0.2-0.2-0.3-0.1-0.1-0.2-0.2-0.3-0.2s-0.2-0.1-0.3-0.2c-0.1 0-0.2-0.1-0.4-0.1-0.3 0-0.5 0-0.8 0-0.1 0-0.3 0.1-0.4 0.1-0.1 0.1-0.2 0.1-0.3 0.2s-0.2 0.2-0.3 0.2c-0.1 0.1-0.2 0.2-0.2 0.3-0.1 0.1-0.1 0.2-0.2 0.3-0.1 0.1-0.1 0.2-0.1 0.4 0 0.1 0 0.3 0 0.4 0 0.5 0.2 1 0.6 1.4 0.1 0.1 0.2 0.2 0.3 0.2s0.2 0.1 0.3 0.2 0.2 0.1 0.4 0.1c0.1 0 0.3 0 0.4 0 0.5 0 1-0.2 1.4-0.6 0.1-0.1 0.2-0.2 0.2-0.3 0.1-0.1 0.1-0.2 0.2-0.3 0.1-0.1 0.1-0.2 0.1-0.4C85 42.3 85 42.1 85 42z" fill="#f8fafc" data-fill-palette-color="accent"></path></svg></g></svg></g></svg></g></svg></g><defs></defs></svg><rect width="395.5199999999999" height="210.1604199164018" fill="none" stroke="none" visibility="hidden"></rect></g></svg></g></svg>